<svg xmlns="http://www.w3.org/2000/svg" viewBox="0 0 491.12 388.65"><path d="M108.59,217.17A108.59,108.59,0,1,1,217.17,108.58,108.71,108.71,0,0,1,108.59,217.17Zm0-202.17a93.59,93.59,0,1,0,93.58,93.58A93.69,93.69,0,0,0,108.59,15Z" fill="#2c4bff"/><path d="M108.59,175.37A67,67,0,0,1,50.74,142a7.5,7.5,0,0,1,13-7.52,51.8,51.8,0,0,0,89.71,0,7.5,7.5,0,1,1,13,7.51A67,67,0,0,1,108.59,175.37Z" fill="#2c4bff"/><path d="M68.65,111.74A23.88,23.88,0,1,1,92.52,87.86,23.9,23.9,0,0,1,68.65,111.74Zm0-32.76a8.88,8.88,0,1,0,8.87,8.88A8.89,8.89,0,0,0,68.65,79Z" fill="#2c4bff"/><path d="M147.15,111.74A23.88,23.88,0,1,1,171,87.86,23.9,23.9,0,0,1,147.15,111.74Zm0-32.76A8.88,8.88,0,1,0,156,87.86,8.89,8.89,0,0,0,147.15,79Z" fill="#2c4bff"/><path d="M382.54,217.17A108.59,108.59,0,1,1,491.12,108.58,108.71,108.71,0,0,1,382.54,217.17Zm0-202.17a93.59,93.59,0,1,0,93.58,93.58A93.69,93.69,0,0,0,382.54,15Z" fill="#2c4bff"/><path d="M433.89,167.37a7.49,7.49,0,0,1-6.5-3.75,51.8,51.8,0,0,0-89.71,0,7.5,7.5,0,0,1-13-7.51,66.81,66.81,0,0,1,115.69,0,7.51,7.51,0,0,1-6.49,11.26Z" fill="#2c4bff"/><path d="M342.6,111.74a23.88,23.88,0,1,1,23.88-23.88A23.9,23.9,0,0,1,342.6,111.74Zm0-32.76a8.88,8.88,0,1,0,8.88,8.88A8.89,8.89,0,0,0,342.6,79Z" fill="#2c4bff"/><path d="M421.1,111.74A23.88,23.88,0,1,1,445,87.86,23.9,23.9,0,0,1,421.1,111.74Zm0-32.76A8.88,8.88,0,1,0,430,87.86,8.89,8.89,0,0,0,421.1,79Z" fill="#2c4bff"/><path d="M443.32,388.65H321.75a7.5,7.5,0,0,1-7.5-7.5V259.58a7.5,7.5,0,0,1,7.5-7.5H443.32a7.5,7.5,0,0,1,7.5,7.5V381.15A7.5,7.5,0,0,1,443.32,388.65Zm-114.07-15H435.82V267.08H329.25Z" fill="#2c4bff"/><path d="M165.19,388.65H43.62a7.5,7.5,0,0,1-7.5-7.5V259.58a7.5,7.5,0,0,1,7.5-7.5H165.19a7.5,7.5,0,1,1,0,15H51.12V373.65H157.69V299.14a7.5,7.5,0,0,1,15,0v82A7.5,7.5,0,0,1,165.19,388.65Z" fill="#2c4bff"/><path d="M95,337.09a7.51,7.51,0,0,1-5.31-2.2L71.1,316.28a7.5,7.5,0,0,1,10.6-10.6L95,319l73.23-73.23a7.5,7.5,0,1,1,10.61,10.6l-78.54,78.54A7.49,7.49,0,0,1,95,337.09Z" fill="#2c4bff"/></svg>