<svg xmlns="http://www.w3.org/2000/svg" viewBox="0 0 479.77 377.49"><path d="M120.26,377.49H25.42A25.45,25.45,0,0,1,0,352.07V257.23a25.44,25.44,0,0,1,25.42-25.42H138.18a7.5,7.5,0,0,1,0,15H25.42A10.43,10.43,0,0,0,15,257.23v94.84a10.43,10.43,0,0,0,10.42,10.42h94.84a10.44,10.44,0,0,0,10.42-10.42V324a7.5,7.5,0,0,1,15,0v28A25.46,25.46,0,0,1,120.26,377.49Z" fill="#2c4bff"/><path d="M71.47,322.48a7.5,7.5,0,0,1-5.3-2.2L49.23,303.34a7.5,7.5,0,1,1,10.61-10.6L71.15,304l76.65-86.45A7.5,7.5,0,1,1,159,227.54L77.09,320a7.54,7.54,0,0,1-5.39,2.53Z" fill="#2c4bff"/><path d="M472.27,265.39H203.34a7.5,7.5,0,0,1,0-15H472.27a7.5,7.5,0,0,1,0,15Z" fill="#2c4bff"/><path d="M472.27,312.15H203.34a7.5,7.5,0,0,1,0-15H472.27a7.5,7.5,0,0,1,0,15Z" fill="#2c4bff"/><path d="M317.07,358.9H203.34a7.5,7.5,0,0,1,0-15H317.07a7.5,7.5,0,1,1,0,15Z" fill="#2c4bff"/><path d="M120.26,162.42H25.42A25.44,25.44,0,0,1,0,137V42.16A25.44,25.44,0,0,1,25.42,16.75H138.18a7.5,7.5,0,0,1,0,15H25.42A10.42,10.42,0,0,0,15,42.16V137a10.42,10.42,0,0,0,10.42,10.41h94.84A10.43,10.43,0,0,0,130.68,137V109a7.5,7.5,0,1,1,15,0V137A25.45,25.45,0,0,1,120.26,162.42Z" fill="#2c4bff"/><path d="M71.47,107.42a7.5,7.5,0,0,1-5.3-2.2L49.23,88.28A7.5,7.5,0,1,1,59.84,77.67L71.15,89,147.8,2.52a7.5,7.5,0,0,1,11.22,10L77.09,104.89a7.49,7.49,0,0,1-5.39,2.52Z" fill="#2c4bff"/><path d="M472.27,50.33H203.34a7.5,7.5,0,0,1,0-15H472.27a7.5,7.5,0,0,1,0,15Z" fill="#2c4bff"/><path d="M472.27,97.09H203.34a7.5,7.5,0,0,1,0-15H472.27a7.5,7.5,0,0,1,0,15Z" fill="#2c4bff"/><path d="M317.07,143.84H203.34a7.5,7.5,0,0,1,0-15H317.07a7.5,7.5,0,0,1,0,15Z" fill="#2c4bff"/></svg>