<svg xmlns="http://www.w3.org/2000/svg" viewBox="0 0 486.36 499.15"><path d="M28.91,289.8A7.49,7.49,0,0,1,21.52,281l4-23.42L8.52,241a7.5,7.5,0,0,1,4.16-12.79l23.51-3.42,10.51-21.3a7.51,7.51,0,0,1,6.73-4.18h0a7.49,7.49,0,0,1,6.72,4.18l10.52,21.3,23.5,3.42A7.5,7.5,0,0,1,98.33,241l-17,16.58,4,23.42a7.5,7.5,0,0,1-10.89,7.9l-21-11.05-21,11.05A7.45,7.45,0,0,1,28.91,289.8Zm1-48.89,9,8.72A7.53,7.53,0,0,1,41,256.27l-2.12,12.32,11.07-5.81a7.49,7.49,0,0,1,7,0L68,268.59l-2.11-12.32A7.5,7.5,0,0,1,68,249.63l9-8.72-12.37-1.8A7.51,7.51,0,0,1,59,235L53.43,223.8,47.9,235a7.54,7.54,0,0,1-5.65,4.1Z" fill="#2c4bff"/><path d="M174.38,289.8a7.41,7.41,0,0,1-3.48-.86l-21-11.05-21,11.05A7.5,7.5,0,0,1,118,281l4-23.42L105,241a7.5,7.5,0,0,1,4.15-12.79l23.51-3.42,10.51-21.3a7.5,7.5,0,0,1,13.45,0l10.52,21.3,23.51,3.42A7.5,7.5,0,0,1,194.77,241l-17,16.58,4,23.42a7.5,7.5,0,0,1-7.4,8.76Zm-24.51-27.89a7.43,7.43,0,0,1,3.49.87l11.06,5.81-2.11-12.32a7.5,7.5,0,0,1,2.16-6.64l8.95-8.72-12.37-1.8a7.52,7.52,0,0,1-5.65-4.1l-5.53-11.21L144.34,235a7.54,7.54,0,0,1-5.65,4.1l-12.37,1.8,9,8.72a7.53,7.53,0,0,1,2.16,6.64l-2.12,12.32,11.07-5.81A7.43,7.43,0,0,1,149.87,261.91Z" fill="#2c4bff"/><path d="M270.83,289.8a7.42,7.42,0,0,1-3.49-.86l-21-11.05-21,11.05A7.5,7.5,0,0,1,214.4,281l4-23.42-17-16.58a7.5,7.5,0,0,1,4.15-12.79l23.51-3.42,10.52-21.3a7.5,7.5,0,0,1,13.45,0l10.51,21.3,23.51,3.42A7.5,7.5,0,0,1,291.22,241l-17,16.58,4,23.42a7.49,7.49,0,0,1-7.39,8.76Zm-48.07-48.89,9,8.72a7.5,7.5,0,0,1,2.16,6.64l-2.11,12.32,11.06-5.81a7.49,7.49,0,0,1,7,0l11.07,5.81-2.12-12.32a7.53,7.53,0,0,1,2.16-6.64l8.95-8.72-12.37-1.8a7.54,7.54,0,0,1-5.65-4.1l-5.53-11.21L240.78,235a7.52,7.52,0,0,1-5.65,4.1Z" fill="#2c4bff"/><path d="M367.27,289.8a7.45,7.45,0,0,1-3.49-.86l-21-11.05-21,11.05a7.5,7.5,0,0,1-10.89-7.9l4-23.42-17-16.58A7.5,7.5,0,0,1,302,228.25l23.5-3.42L336,203.53a7.5,7.5,0,0,1,13.45,0L360,224.83l23.51,3.42A7.5,7.5,0,0,1,387.66,241l-17,16.58,4,23.42a7.49,7.49,0,0,1-7.39,8.76Zm-24.52-27.89a7.43,7.43,0,0,1,3.49.87l11.07,5.81-2.12-12.32a7.53,7.53,0,0,1,2.16-6.64l8.95-8.72-12.37-1.8a7.51,7.51,0,0,1-5.64-4.1l-5.54-11.21L337.22,235a7.51,7.51,0,0,1-5.65,4.1l-12.37,1.8,8.95,8.72a7.5,7.5,0,0,1,2.16,6.64l-2.11,12.32,11.06-5.81A7.43,7.43,0,0,1,342.75,261.91Z" fill="#2c4bff"/><path d="M463.71,289.8a7.47,7.47,0,0,1-3.49-.86l-21-11.05-21,11.05a7.5,7.5,0,0,1-10.88-7.9l4-23.42-17-16.58a7.5,7.5,0,0,1,4.16-12.79L422,224.83l10.51-21.3a7.5,7.5,0,0,1,13.45,0l10.51,21.3,23.51,3.42A7.5,7.5,0,0,1,484.1,241l-17,16.58,4,23.42a7.49,7.49,0,0,1-7.39,8.76Zm-24.52-27.89a7.43,7.43,0,0,1,3.49.87l11.07,5.81-2.11-12.32a7.49,7.49,0,0,1,2.15-6.64l9-8.72-12.38-1.8a7.51,7.51,0,0,1-5.64-4.1l-5.54-11.21L433.66,235a7.51,7.51,0,0,1-5.65,4.1l-12.37,1.8,8.95,8.72a7.5,7.5,0,0,1,2.16,6.64l-2.11,12.32,11.06-5.81A7.46,7.46,0,0,1,439.19,261.91Z" fill="#2c4bff"/><path d="M242.4,115.41a7.5,7.5,0,0,1-7.5-7.5V90.05a7.5,7.5,0,1,1,15,0v17.86A7.5,7.5,0,0,1,242.4,115.41Z" fill="#2c4bff"/><path d="M242.4,65.2a7.49,7.49,0,0,1-7.5-7.5V7.5a7.5,7.5,0,0,1,15,0V57.7A7.5,7.5,0,0,1,242.4,65.2Z" fill="#2c4bff"/><path d="M132.74,147.42a7.47,7.47,0,0,1-5.3-2.19L87.79,105.58A7.5,7.5,0,0,1,98.4,95l39.65,39.65a7.5,7.5,0,0,1-5.31,12.8Z" fill="#2c4bff"/><path d="M68,82.67a7.52,7.52,0,0,1-5.31-2.2l-9.35-9.35a7.5,7.5,0,1,1,10.6-10.61l9.36,9.35A7.51,7.51,0,0,1,68,82.67Z" fill="#2c4bff"/><path d="M421.48,78a7.51,7.51,0,0,1-5.3-12.81L429,52.4A7.5,7.5,0,0,1,439.57,63L426.79,75.79A7.48,7.48,0,0,1,421.48,78Z" fill="#2c4bff"/><path d="M355.78,143.7a7.51,7.51,0,0,1-5.31-12.81l44.95-44.95A7.5,7.5,0,1,1,406,96.55l-44.95,45A7.47,7.47,0,0,1,355.78,143.7Z" fill="#2c4bff"/><path d="M176.28,97.55a7.5,7.5,0,0,1-6.93-4.63L141,24.55a7.5,7.5,0,1,1,13.86-5.74l28.33,68.37a7.5,7.5,0,0,1-6.93,10.37Z" fill="#2c4bff"/><path d="M416.81,184.8a7.51,7.51,0,0,1-2.87-14.44l53.48-22.16a7.5,7.5,0,0,1,5.75,13.85l-53.49,22.17A7.47,7.47,0,0,1,416.81,184.8Z" fill="#2c4bff"/><path d="M51.47,178a7.41,7.41,0,0,1-2.86-.57l-44-18.21a7.5,7.5,0,0,1,5.74-13.86l44,18.21A7.5,7.5,0,0,1,51.47,178Z" fill="#2c4bff"/><path d="M308.44,97.55a7.5,7.5,0,0,1-6.93-10.37l30.4-73.44a7.5,7.5,0,0,1,13.86,5.74l-30.4,73.44A7.5,7.5,0,0,1,308.44,97.55Z" fill="#2c4bff"/><path d="M235.4,416.6a7.5,7.5,0,0,1-7.5-7.5V391.24a7.5,7.5,0,0,1,15,0V409.1A7.5,7.5,0,0,1,235.4,416.6Z" fill="#2c4bff"/><path d="M235.4,499.15a7.5,7.5,0,0,1-7.5-7.5v-50.2a7.5,7.5,0,0,1,15,0v50.2A7.5,7.5,0,0,1,235.4,499.15Z" fill="#2c4bff"/><path d="M384.7,406.38a7.48,7.48,0,0,1-5.3-2.2l-39.65-39.65a7.5,7.5,0,0,1,10.61-10.61L390,393.57a7.51,7.51,0,0,1-5.3,12.81Z" fill="#2c4bff"/><path d="M419.16,440.84a7.47,7.47,0,0,1-5.3-2.2l-9.35-9.35a7.5,7.5,0,0,1,10.6-10.61l9.36,9.36a7.5,7.5,0,0,1-5.31,12.8Z" fill="#2c4bff"/><path d="M43.53,449a7.5,7.5,0,0,1-5.31-12.8L51,423.36A7.5,7.5,0,1,1,61.61,434L48.83,446.75A7.46,7.46,0,0,1,43.53,449Z" fill="#2c4bff"/><path d="M77.07,415.4a7.5,7.5,0,0,1-5.3-12.8l45-45a7.5,7.5,0,0,1,10.6,10.61L82.37,413.21A7.47,7.47,0,0,1,77.07,415.4Z" fill="#2c4bff"/><path d="M329.85,485a7.5,7.5,0,0,1-6.93-4.63L294.59,412a7.5,7.5,0,1,1,13.85-5.74l28.34,68.37A7.5,7.5,0,0,1,329.85,485Z" fill="#2c4bff"/><path d="M7.51,351.53A7.5,7.5,0,0,1,4.63,337.1l53.49-22.17a7.5,7.5,0,1,1,5.74,13.86L10.37,351A7.46,7.46,0,0,1,7.51,351.53Z" fill="#2c4bff"/><path d="M470.29,354.32a7.49,7.49,0,0,1-2.87-.57l-44-18.21a7.5,7.5,0,0,1,5.74-13.86l44,18.21a7.5,7.5,0,0,1-2.87,14.43Z" fill="#2c4bff"/><path d="M139,490.05A7.52,7.52,0,0,1,132,479.68l30.41-73.45A7.5,7.5,0,0,1,176.29,412l-30.41,73.44A7.5,7.5,0,0,1,139,490.05Z" fill="#2c4bff"/></svg>