<svg xmlns="http://www.w3.org/2000/svg" viewBox="0 0 436.69 496.31"><path d="M228.5,496.31H42a42,42,0,0,1-42-42V42A42.05,42.05,0,0,1,42,0H228.5a42.06,42.06,0,0,1,42,42V71.43a7.5,7.5,0,0,1-15,0V42a27,27,0,0,0-27-27H42A27,27,0,0,0,15,42v412.3a27,27,0,0,0,27,27H228.5a27,27,0,0,0,27-27V353a7.5,7.5,0,0,1,15,0V454.31A42.05,42.05,0,0,1,228.5,496.31Z" fill="#2c4bff"/><path d="M263,425.16H7.5a7.5,7.5,0,0,1,0-15H263a7.5,7.5,0,0,1,0,15Z" fill="#2c4bff"/><path d="M153.85,459.12H116.66a7.5,7.5,0,1,1,0-15h37.19a7.5,7.5,0,1,1,0,15Z" fill="#2c4bff"/><path d="M138.05,46.75h-5.59a7.5,7.5,0,0,1,0-15h5.59a7.5,7.5,0,0,1,0,15Z" fill="#2c4bff"/><path d="M183.15,360.48a7.5,7.5,0,0,1-7.5-7.5V325.72A62.15,62.15,0,0,1,118,263.81V159.17A62.14,62.14,0,0,1,180.11,97.1H374.62a62.13,62.13,0,0,1,62.07,62.07V263.81a62.14,62.14,0,0,1-62.07,62.07H232.42L187.61,359A7.5,7.5,0,0,1,183.15,360.48Zm-3-248.38A47.12,47.12,0,0,0,133,159.17V263.81a47.13,47.13,0,0,0,47.07,47.07h3a7.5,7.5,0,0,1,7.5,7.5v19.73l34.84-25.76a7.48,7.48,0,0,1,4.46-1.47H374.62a47.12,47.12,0,0,0,47.07-47.07V159.17a47.12,47.12,0,0,0-47.07-47.07Z" fill="#2c4bff"/><path d="M252.4,173.44h-76a7.5,7.5,0,0,1,0-15h76a7.5,7.5,0,0,1,0,15Z" fill="#2c4bff"/><path d="M379,216.48H176.45a7.5,7.5,0,0,1,0-15H379a7.5,7.5,0,0,1,0,15Z" fill="#2c4bff"/><path d="M379,259.53H176.45a7.5,7.5,0,0,1,0-15H379a7.5,7.5,0,1,1,0,15Z" fill="#2c4bff"/></svg>