<svg xmlns="http://www.w3.org/2000/svg" viewBox="0 0 495.17 427.43"><path d="M303.85,381.35H47.28A47.33,47.33,0,0,1,0,334.07V47.28A47.33,47.33,0,0,1,47.28,0H447.89a47.33,47.33,0,0,1,47.28,47.28V331.07a7.5,7.5,0,0,1-15,0V47.28A32.32,32.32,0,0,0,447.89,15H47.28A32.32,32.32,0,0,0,15,47.28V334.07a32.32,32.32,0,0,0,32.28,32.28H303.85a7.5,7.5,0,0,1,0,15Z" fill="#2c4bff"/><path d="M456.32,91.44H38.85a7.5,7.5,0,1,1,0-15H456.32a7.5,7.5,0,0,1,0,15Z" fill="#2c4bff"/><circle cx="60.42" cy="48.83" r="10.7" transform="translate(-1.04 96.35) rotate(-76.66)" fill="#2c4bff"/><circle cx="102.9" cy="48.83" r="10.7" transform="translate(-4.39 87.06) rotate(-45)" fill="#2c4bff"/><circle cx="145.38" cy="48.83" r="10.7" transform="translate(-7.17 64.6) rotate(-24.47)" fill="#2c4bff"/><path d="M437,427.43a7.44,7.44,0,0,1-5.3-2.2l-67.9-67.89-19.13,19.13A7.5,7.5,0,0,1,331.87,372L320,268.12a7.49,7.49,0,0,1,8.3-8.31l103.9,11.87a7.51,7.51,0,0,1,4.46,12.76l-19.14,19.13,67.9,67.9a7.5,7.5,0,0,1-10.61,10.61l-73.2-73.2a7.5,7.5,0,0,1,0-10.61l13.45-13.45-79.09-9,9,79.09,13.45-13.45a7.5,7.5,0,0,1,10.61,0l73.2,73.2a7.5,7.5,0,0,1-5.31,12.8Z" fill="#2c4bff"/><path d="M123.93,213.14H67.57a7.5,7.5,0,0,1-7.5-7.5V149.28a7.5,7.5,0,0,1,7.5-7.5h56.36a7.5,7.5,0,1,1,0,15H75.07v41.36h41.36V185.82a7.5,7.5,0,0,1,15,0v19.82A7.5,7.5,0,0,1,123.93,213.14Z" fill="#2c4bff"/><path d="M95.16,189.48a7.5,7.5,0,0,1-5.3-2.2L82.55,180a7.5,7.5,0,0,1,10.61-10.61L94.83,171l30.06-33.9a7.5,7.5,0,0,1,11.22,10L100.77,187a7.52,7.52,0,0,1-5.38,2.53Z" fill="#2c4bff"/><path d="M123.93,319.05H67.57a7.5,7.5,0,0,1-7.5-7.5V255.19a7.5,7.5,0,0,1,7.5-7.5h56.36a7.5,7.5,0,0,1,0,15H75.07v41.36h41.36V291.73a7.5,7.5,0,0,1,15,0v19.82A7.5,7.5,0,0,1,123.93,319.05Z" fill="#2c4bff"/><path d="M95.16,295.39a7.5,7.5,0,0,1-5.3-2.2l-7.31-7.3a7.5,7.5,0,1,1,10.61-10.61L94.83,277l30.06-33.9A7.5,7.5,0,0,1,136.11,253l-35.34,39.87a7.55,7.55,0,0,1-5.38,2.52Z" fill="#2c4bff"/><path d="M383.82,156.78H177.68a7.5,7.5,0,0,1,0-15H383.82a7.5,7.5,0,0,1,0,15Z" fill="#2c4bff"/><path d="M226.74,197.11H177.68a7.5,7.5,0,0,1,0-15h49.06a7.5,7.5,0,0,1,0,15Z" fill="#2c4bff"/><path d="M285.38,262.69H177.68a7.5,7.5,0,0,1,0-15h107.7a7.5,7.5,0,0,1,0,15Z" fill="#2c4bff"/><path d="M226.74,303H177.68a7.5,7.5,0,0,1,0-15h49.06a7.5,7.5,0,0,1,0,15Z" fill="#2c4bff"/></svg>