<svg xmlns="http://www.w3.org/2000/svg" viewBox="0 0 501.35 480.83"><path d="M123.87,59.21a7.5,7.5,0,0,1-7.5-7.5V40.9A41,41,0,0,1,157.27,0H337.76a41,41,0,0,1,40.9,40.9V50a7.5,7.5,0,0,1-15,0V40.9A25.93,25.93,0,0,0,337.76,15H157.27a25.93,25.93,0,0,0-25.9,25.9V51.71A7.5,7.5,0,0,1,123.87,59.21Z" fill="#2c4bff"/><path d="M337.76,480.83H157.27a41,41,0,0,1-40.9-40.9V349.84a7.5,7.5,0,0,1,15,0v90.09a25.93,25.93,0,0,0,25.9,25.9H337.76a25.93,25.93,0,0,0,25.9-25.9V358.19a7.5,7.5,0,0,1,15,0v81.74A41,41,0,0,1,337.76,480.83Z" fill="#2c4bff"/><path d="M371.16,412H123.87a7.5,7.5,0,1,1,0-15H371.16a7.5,7.5,0,0,1,0,15Z" fill="#2c4bff"/><path d="M265.52,444.83h-36a7.5,7.5,0,0,1,0-15h36a7.5,7.5,0,0,1,0,15Z" fill="#2c4bff"/><path d="M250.22,45.73h-5.41a7.5,7.5,0,0,1,0-15h5.41a7.5,7.5,0,1,1,0,15Z" fill="#2c4bff"/><path d="M362.19,228.44a7.51,7.51,0,0,1-7.5-7.5V208.13a38.91,38.91,0,0,1-33.1-38.42V109.6a38.89,38.89,0,0,1,38.85-38.85H462.5a38.88,38.88,0,0,1,38.85,38.85v60.11a38.89,38.89,0,0,1-38.85,38.85H391.55L366.65,227A7.52,7.52,0,0,1,362.19,228.44ZM360.44,85.75a23.88,23.88,0,0,0-23.85,23.85v60.11a23.88,23.88,0,0,0,23.85,23.85h1.75a7.5,7.5,0,0,1,7.5,7.5v5l14.92-11a7.5,7.5,0,0,1,4.46-1.47H462.5a23.87,23.87,0,0,0,23.85-23.85V109.6A23.87,23.87,0,0,0,462.5,85.75Z" fill="#2c4bff"/><path d="M455.32,131.2H368a7.5,7.5,0,0,1,0-15h87.3a7.5,7.5,0,1,1,0,15Z" fill="#2c4bff"/><path d="M416.61,165.6H368a7.5,7.5,0,0,1,0-15h48.59a7.5,7.5,0,0,1,0,15Z" fill="#2c4bff"/><path d="M307.34,357.34a7.49,7.49,0,0,1-7.5-7.5V337a38.91,38.91,0,0,1-33.1-38.43V232.69a38.9,38.9,0,0,1,38.85-38.85,7.5,7.5,0,0,1,0,15,23.88,23.88,0,0,0-23.85,23.85v65.92a23.88,23.88,0,0,0,23.85,23.85h1.75a7.5,7.5,0,0,1,7.5,7.5v5l14.92-11a7.52,7.52,0,0,1,4.46-1.47h73.43a23.88,23.88,0,0,0,23.85-23.85v-69.4a7.5,7.5,0,0,1,15,0v69.4a38.89,38.89,0,0,1-38.85,38.85h-71L311.8,355.87A7.54,7.54,0,0,1,307.34,357.34Z" fill="#2c4bff"/><path d="M400.47,260.1h-87.3a7.5,7.5,0,1,1,0-15h87.3a7.5,7.5,0,0,1,0,15Z" fill="#2c4bff"/><path d="M361.76,294.51H313.17a7.5,7.5,0,0,1,0-15h48.59a7.5,7.5,0,0,1,0,15Z" fill="#2c4bff"/><path d="M139.17,228.44a7.5,7.5,0,0,1-4.46-1.47l-24.9-18.41h-71A38.9,38.9,0,0,1,0,169.71V109.6A38.89,38.89,0,0,1,38.85,70.75H140.91a38.89,38.89,0,0,1,38.85,38.85v60.11a38.9,38.9,0,0,1-33.1,38.42v12.81a7.51,7.51,0,0,1-7.49,7.5ZM38.85,85.75A23.88,23.88,0,0,0,15,109.6v60.11a23.88,23.88,0,0,0,23.85,23.85h73.43a7.45,7.45,0,0,1,4.46,1.47l14.92,11v-5a7.5,7.5,0,0,1,7.5-7.5h1.75a23.88,23.88,0,0,0,23.85-23.85V109.6a23.88,23.88,0,0,0-23.85-23.85Z" fill="#2c4bff"/><path d="M133.34,131.2H46a7.5,7.5,0,0,1,0-15h87.31a7.5,7.5,0,1,1,0,15Z" fill="#2c4bff"/><path d="M94.62,165.6H46a7.5,7.5,0,0,1,0-15H94.62a7.5,7.5,0,0,1,0,15Z" fill="#2c4bff"/><path d="M194,357.34a7.5,7.5,0,0,1-4.46-1.47l-24.9-18.41h-71a38.89,38.89,0,0,1-38.85-38.85v-69.4a7.5,7.5,0,1,1,15,0v69.4A23.88,23.88,0,0,0,93.7,322.46h73.43a7.52,7.52,0,0,1,4.46,1.47l14.93,11v-5a7.5,7.5,0,0,1,7.5-7.5h1.75a23.87,23.87,0,0,0,23.84-23.85V232.69a23.87,23.87,0,0,0-23.84-23.85,7.5,7.5,0,0,1,0-15,38.89,38.89,0,0,1,38.84,38.85v65.92A38.91,38.91,0,0,1,201.52,337v12.8a7.52,7.52,0,0,1-4.13,6.7A7.42,7.42,0,0,1,194,357.34Z" fill="#2c4bff"/><path d="M188.19,260.1H100.88a7.5,7.5,0,1,1,0-15h87.31a7.5,7.5,0,0,1,0,15Z" fill="#2c4bff"/><path d="M149.48,294.51h-48.6a7.5,7.5,0,0,1,0-15h48.6a7.5,7.5,0,1,1,0,15Z" fill="#2c4bff"/></svg>