<?xml version="1.0" encoding="utf-8"?>
<!-- Generator: Adobe Illustrator 23.0.2, SVG Export Plug-In . SVG Version: 6.00 Build 0)  -->
<svg version="1.1" id="Layer_1" xmlns="http://www.w3.org/2000/svg" xmlns:xlink="http://www.w3.org/1999/xlink" x="0px" y="0px"
	 viewBox="0 0 96.2 19.1" style="enable-background:new 0 0 96.2 19.1;" xml:space="preserve">
<g>
	<path fill="black" d="M43.6,5.2c-0.2-0.8-0.5-1.7-2.4-1.7c-1.9,0-2.2,0.7-2.2,1.3c0,2.1,8.5,0.6,8.5,5.5c0,3.9-3.8,4.6-5.9,4.6
		c-3.1,0-6.4-1-6.5-4.6h3.7c0,1.1,0.7,1.9,2.9,1.9c1.8,0,2.3-0.9,2.3-1.4c0-2.2-8.4-0.5-8.4-5.5c0-1.9,1.2-4.4,5.5-4.4
		c2.6,0,5.8,0.6,6.1,4.4H43.6z"/>
	<path fill="black" d="M67.4,14.4h-3.6v-8c0-2-0.9-2.6-1.9-2.6c-1.8,0-2.4,1.1-2.4,2.7v7.9H56v-8c0-1.1,0-2.7-2.1-2.7
		c-1.7,0-2.2,1.1-2.2,2.6v8.1h-3.6V1.2h3.4v1.9h0.1C52,2.3,53,0.8,55.4,0.8c2,0,2.8,0.7,3.8,2.1c0.5-0.6,1.4-2.1,3.6-2.1
		c2.6,0,4.7,1.5,4.7,4.4V14.4z"/>
	<path fill="black" d="M81.3,10.6c-0.9,3.2-3.6,4.2-5.9,4.2c-3.8,0-6.7-1.8-6.7-7.2c0-1.6,0.6-6.7,6.5-6.7c2.7,0,6.4,1.2,6.4,7.3v0.6
		h-9.3c0.1,1,0.3,3.2,3.2,3.2c1,0,2-0.5,2.3-1.4H81.3z M77.8,6.5c-0.2-2.1-1.6-2.8-2.7-2.8c-1.7,0-2.6,1-2.8,2.8H77.8z"/>
	<path fill="black" d="M95.8,0.8v12.1c0,2.2-0.2,5.9-6.8,5.9c-2.8,0-5.7-1.1-5.9-3.8h3.9c0.2,0.6,0.4,1.3,2.5,1.3
		c1.9,0,2.8-0.9,2.8-2.9v-1.5l-0.1,0c-0.6,1-1.5,1.9-3.6,1.9c-3.3,0-5.8-2.1-5.8-6.6c0-4.4,2.6-6.6,5.6-6.6c2.5,0,3.5,1.4,4,2.2h0.1
		V0.8H95.8z M89.2,10.7c2.4,0,3-1.9,3-3.7c0-2.1-1.1-3.7-3-3.7c-1.3,0-2.8,0.9-2.8,3.9C86.4,8.8,87.1,10.7,89.2,10.7"/>
	<path fill="black" d="M9.1,14.4c0,2.4-1.9,4.3-4.3,4.3c-2.4,0-4.3-1.9-4.3-4.3C0.4,12,2.4,10,4.8,10C7.1,10,9.1,12,9.1,14.4"/>
	<path fill="black" d="M17.7,14.4c0,2.4-1.9,4.3-4.3,4.3c-2.4,0-4.3-1.9-4.3-4.3C9.1,12,11,10,13.4,10C15.8,10,17.7,12,17.7,14.4"/>
	<path fill="black" d="M26.4,14.4c0,2.4-1.9,4.3-4.3,4.3c-2.4,0-4.3-1.9-4.3-4.3c0-2.4,1.9-4.3,4.3-4.3C24.5,10,26.4,12,26.4,14.4"/>
	<path fill="black" d="M17.7,5.7c0,2.4-1.9,4.3-4.3,4.3C11,10,9.1,8.1,9.1,5.7c0-2.4,1.9-4.3,4.3-4.3C15.8,1.4,17.7,3.3,17.7,5.7"/>
	<path fill="black" d="M26.4,5.7c0,2.4-1.9,4.3-4.3,4.3c-2.4,0-4.3-1.9-4.3-4.3c0-2.4,1.9-4.3,4.3-4.3C24.5,1.4,26.4,3.3,26.4,5.7"/>
	<path fill="black" d="M35.1,5.7c0,2.4-1.9,4.3-4.3,4.3c-2.4,0-4.3-1.9-4.3-4.3c0-2.4,1.9-4.3,4.3-4.3C33.1,1.4,35.1,3.3,35.1,5.7"/>
</g>
</svg>
