<?xml version="1.0" standalone="no"?>
<!DOCTYPE svg PUBLIC "-//W3C//DTD SVG 20010904//EN"
 "http://www.w3.org/TR/2001/REC-SVG-20010904/DTD/svg10.dtd">
<svg version="1.0" xmlns="http://www.w3.org/2000/svg"
 width="350.000000pt" height="350.000000pt" viewBox="0 0 350.000000 350.000000"
 preserveAspectRatio="xMidYMid meet">
<metadata>
Created by potrace 1.14, written by Peter Selinger 2001-2017
</metadata>
<g transform="translate(0.000000,350.000000) scale(0.100000,-0.100000)"
fill="#000000" stroke="none">
<path d="M1325 2849 c-225 -131 -421 -245 -435 -252 -25 -13 -412 -238 -418
-242 -1 -1 32 -22 75 -47 43 -24 224 -129 403 -233 179 -103 344 -198 367
-211 23 -13 108 -63 190 -110 81 -48 164 -95 183 -106 109 -62 641 -370 733
-424 59 -35 112 -64 117 -64 31 0 -6 -27 -137 -103 -82 -46 -204 -117 -273
-157 -69 -40 -141 -81 -160 -92 -19 -11 -77 -45 -129 -75 -70 -42 -98 -53
-110 -46 -9 5 -191 110 -404 233 l-389 224 24 18 c12 9 27 18 32 18 5 0 17 6
25 14 16 13 115 71 177 102 l30 16 255 -147 c140 -81 259 -148 264 -148 15 0
225 123 225 132 0 4 -24 19 -52 35 -29 15 -109 60 -178 100 -94 54 -739 428
-1011 585 -25 14 -30 13 -138 -49 -61 -35 -111 -67 -111 -71 0 -4 19 -18 43
-31 23 -14 138 -80 255 -148 l213 -122 -256 -148 c-141 -82 -258 -150 -260
-152 -3 -3 187 -116 344 -204 31 -17 241 -138 466 -269 226 -130 422 -243 436
-251 28 -14 17 -19 222 99 141 82 498 288 524 303 18 11 139 80 268 154 244
140 287 168 270 176 -20 9 -2023 1169 -2045 1185 -23 15 -20 17 156 118 98 56
186 107 194 112 8 5 109 63 224 129 l208 120 52 -28 c28 -16 68 -38 89 -50 21
-12 156 -90 300 -174 144 -83 278 -160 297 -171 55 -31 72 -45 63 -50 -4 -3
-24 -14 -43 -25 -19 -11 -79 -45 -134 -77 -83 -48 -102 -55 -120 -46 -11 5
-129 73 -261 150 -223 129 -242 138 -262 125 -12 -7 -39 -23 -60 -35 -116 -64
-143 -81 -138 -88 2 -5 46 -32 97 -62 51 -29 233 -134 403 -232 171 -99 330
-191 355 -205 25 -14 121 -69 213 -123 192 -112 202 -116 225 -96 9 8 22 16
27 18 26 10 165 94 165 100 0 3 -112 71 -250 150 -137 79 -250 147 -250 151 0
3 115 73 255 154 l255 147 -81 49 c-44 26 -82 48 -84 48 -1 0 -63 36 -138 79
-74 43 -155 90 -180 104 -25 14 -159 92 -299 173 -139 81 -271 157 -293 169
-22 13 -76 44 -120 69 -44 25 -82 45 -85 45 -3 -1 -189 -109 -415 -240z"/>
</g>
</svg>
